<svg width="420" height="180" viewBox="0 0 420 180" fill="none" xmlns="http://www.w3.org/2000/svg">
<path d="M73.76 176.52V148H0.400002V120.45L43.11 3.59003H82.93L36.56 116.52H73.76V68H109.92V116.47H126.43V148H109.92V176.56L73.76 176.52Z" fill="#F2F2F2"/>
<path d="M159.83 21.93C171.097 7.61001 187.82 0.450012 210 0.450012C232.18 0.450012 248.903 7.61001 260.17 21.93C271.437 36.2567 277.07 59.2567 277.07 90.93C277.07 122.603 271.48 145.323 260.3 159.09C249.12 172.803 232.353 179.66 210 179.66C187.647 179.66 170.88 172.803 159.7 159.09C148.52 145.383 142.93 122.687 142.93 91C142.93 59.3133 148.563 36.29 159.83 21.93ZM239.83 90.18C239.83 68.6133 237.56 53.5033 233.02 44.85C228.48 36.1967 220.84 31.8633 210.1 31.85C199.367 31.8767 191.693 36.26 187.08 45C182.467 53.74 180.153 68.85 180.14 90.33C180.14 111.817 182.497 126.837 187.21 135.39C191.923 143.943 199.61 148.223 210.27 148.23C220.937 148.23 228.533 143.95 233.06 135.39C237.587 126.83 239.857 111.763 239.87 90.19L239.83 90.18Z" fill="#F2F2F2"/>
<path d="M367.2 176.52V148H293.84V120.45L336.55 3.59003H376.37L330 116.52H367.2V68H403.36V116.47H419.87V148H403.36V176.56L367.2 176.52Z" fill="#F2F2F2"/>
</svg>
